<svg width="392" height="236" viewBox="0 0 392 236" fill="none" xmlns="http://www.w3.org/2000/svg">
<g clip-path="url(#clip0)">
<path d="M392 184.115C392.008 185.689 391.388 187.202 390.277 188.32C389.165 189.439 387.652 190.072 386.071 190.081H125.209C123.629 190.072 122.116 189.439 121.004 188.321C119.892 187.202 119.272 185.689 119.28 184.115V6.69578C119.272 5.12188 119.892 3.60917 121.004 2.49043C122.116 1.3717 123.629 0.738576 125.209 0.730347H386.071C387.652 0.738534 389.165 1.37162 390.276 2.49032C391.388 3.60903 392.008 5.12171 392 6.69561V184.115Z" fill="#E6E6E6"/>
<path d="M388.923 181.21C388.923 182.739 388.313 184.206 387.226 185.288C386.14 186.37 384.666 186.978 383.13 186.978H128.329C126.793 186.978 125.319 186.37 124.233 185.288C123.146 184.206 122.536 182.739 122.536 181.21V9.68219C122.536 8.15238 123.146 6.68524 124.233 5.60351C125.319 4.52177 126.793 3.91406 128.329 3.91406H383.141C384.676 3.91714 386.146 4.5262 387.23 5.6076C388.314 6.689 388.923 8.15439 388.923 9.68219V181.21Z" fill="white"/>
<path d="M136.154 11.3611H375.576C376.488 11.3611 377.363 11.7218 378.008 12.3639C378.653 13.0059 379.015 13.8768 379.015 14.7848V175.441C379.015 176.349 378.653 177.22 378.008 177.862C377.363 178.504 376.488 178.865 375.576 178.865H136.154C135.702 178.865 135.255 178.777 134.838 178.604C134.421 178.432 134.042 178.18 133.722 177.862C133.403 177.544 133.15 177.167 132.977 176.752C132.804 176.336 132.715 175.891 132.715 175.441V14.7848C132.715 14.3352 132.804 13.89 132.977 13.4746C133.15 13.0592 133.403 12.6818 133.722 12.3639C134.042 12.0459 134.421 11.7938 134.838 11.6217C135.255 11.4496 135.702 11.3611 136.154 11.3611Z" fill="#E6E6E6"/>
<path d="M139.185 15.2144H372.286C373.198 15.2144 374.072 15.5751 374.717 16.2171C375.362 16.8592 375.724 17.7301 375.724 18.6381V170.722C375.724 171.63 375.362 172.501 374.717 173.143C374.072 173.785 373.198 174.145 372.286 174.145H139.185C138.273 174.145 137.398 173.785 136.753 173.143C136.108 172.501 135.746 171.63 135.746 170.722V18.6381C135.746 17.7301 136.108 16.8592 136.753 16.2171C137.398 15.5751 138.273 15.2144 139.185 15.2144Z" fill="white"/>
<path d="M331.777 205.392C331.785 206.966 331.165 208.479 330.053 209.598C328.942 210.717 327.429 211.35 325.848 211.358H64.9862C64.2036 211.354 63.4293 211.196 62.7078 210.894C61.9863 210.592 61.3315 210.152 60.7809 209.598C60.2304 209.044 59.7948 208.387 59.499 207.666C59.2033 206.944 59.0531 206.172 59.0572 205.393V27.9731C59.0489 26.3992 59.6689 24.8865 60.7808 23.7678C61.8927 22.649 63.4054 22.0159 64.9861 22.0077H325.848C327.429 22.0159 328.941 22.649 330.053 23.7677C331.165 24.8864 331.785 26.3991 331.777 27.973V205.392Z" fill="#E6E6E6"/>
<path d="M328.7 202.487C328.7 204.017 328.09 205.484 327.004 206.566C325.917 207.647 324.444 208.255 322.907 208.255H68.1065C66.5701 208.255 65.0966 207.647 64.0102 206.566C62.9238 205.484 62.3135 204.017 62.3135 202.487V30.9597C62.3135 29.4299 62.9238 27.9627 64.0102 26.881C65.0966 25.7992 66.5701 25.1915 68.1065 25.1915H322.919C324.453 25.1946 325.924 25.8037 327.008 26.8851C328.092 27.9665 328.7 29.4319 328.7 30.9597V202.487Z" fill="white"/>
<path d="M75.9312 32.6387H315.354C316.266 32.6387 317.14 32.9994 317.785 33.6415C318.43 34.2835 318.792 35.1544 318.792 36.0624V196.719C318.792 197.627 318.43 198.498 317.785 199.14C317.14 199.782 316.266 200.143 315.354 200.143H75.9312C75.0193 200.143 74.1446 199.782 73.4998 199.14C72.8549 198.498 72.4927 197.627 72.4927 196.719V36.0624C72.4927 35.1544 72.8549 34.2835 73.4998 33.6415C74.1446 32.9994 75.0193 32.6387 75.9312 32.6387Z" fill="#E6E6E6"/>
<path d="M78.962 36.4917H312.063C312.975 36.4917 313.85 36.8524 314.494 37.4945C315.139 38.1366 315.502 39.0074 315.502 39.9154V191.999C315.502 192.907 315.139 193.778 314.494 194.42C313.85 195.062 312.975 195.423 312.063 195.423H78.962C78.05 195.423 77.1754 195.062 76.5306 194.42C75.8857 193.778 75.5234 192.907 75.5234 191.999V39.9154C75.5234 39.0074 75.8857 38.1366 76.5306 37.4945C77.1754 36.8524 78.05 36.4917 78.962 36.4917Z" fill="white"/>
<path d="M272.72 229.765C272.728 231.339 272.108 232.851 270.996 233.97C269.884 235.089 268.372 235.722 266.791 235.73H5.92911C4.34842 235.722 2.83573 235.089 1.72382 233.97C0.611908 232.852 -0.00813706 231.339 8.15902e-05 229.765V52.3456C-0.00818367 50.7717 0.611817 49.259 1.72369 48.1402C2.83557 47.0215 4.34825 46.3884 5.92894 46.3801H266.791C267.574 46.3842 268.348 46.5417 269.069 46.8437C269.791 47.1456 270.446 47.5862 270.996 48.1401C271.547 48.694 271.982 49.3505 272.278 50.0721C272.574 50.7936 272.724 51.5661 272.72 52.3454V229.765Z" fill="#E6E6E6"/>
<path d="M269.643 226.859C269.643 228.389 269.033 229.856 267.946 230.938C266.86 232.02 265.386 232.628 263.85 232.628H9.04939C7.51298 232.628 6.0395 232.02 4.95309 230.938C3.86669 229.856 3.25635 228.389 3.25635 226.859V55.3321C3.25635 53.8023 3.86669 52.3351 4.95309 51.2534C6.0395 50.1717 7.51298 49.564 9.04939 49.564H263.862C265.396 49.567 266.867 50.1761 267.951 51.2575C269.034 52.3389 269.643 53.8043 269.643 55.3321V226.859Z" fill="white"/>
<path d="M16.8741 57.011H256.297C257.208 57.011 258.083 57.3717 258.728 58.0138C259.373 58.6559 259.735 59.5267 259.735 60.4347V221.091C259.735 221.999 259.373 222.87 258.728 223.512C258.083 224.154 257.208 224.515 256.297 224.515H16.8741C15.9621 224.515 15.0875 224.154 14.4427 223.512C13.7978 222.87 13.4355 221.999 13.4355 221.091V60.4347C13.4355 59.5267 13.7978 58.6559 14.4427 58.0138C15.0875 57.3717 15.9621 57.011 16.8741 57.011Z" fill="#E6E6E6"/>
<path d="M19.9048 60.8641H253.006C253.918 60.8641 254.792 61.2248 255.437 61.8669C256.082 62.509 256.444 63.3798 256.444 64.2879V216.372C256.444 217.28 256.082 218.15 255.437 218.792C254.792 219.435 253.918 219.795 253.006 219.795H19.9048C18.9929 219.795 18.1183 219.435 17.4734 218.792C16.8286 218.15 16.4663 217.28 16.4663 216.372V64.2879C16.4663 63.3798 16.8286 62.509 17.4734 61.8669C18.1183 61.2248 18.9929 60.8641 19.9048 60.8641Z" fill="white"/>
<path d="M192.17 93.8094V199.036C192.17 199.652 191.924 200.242 191.487 200.677C191.05 201.112 190.457 201.357 189.839 201.357H79.1066C78.4885 201.357 77.8958 201.112 77.4587 200.677C77.0216 200.242 76.7759 199.652 76.7754 199.036V81.4298C76.7759 80.8144 77.0216 80.2242 77.4587 79.789C77.8958 79.3538 78.4885 79.1091 79.1066 79.1086H175.852L192.17 93.8094Z" fill="currentColor"/>
<path d="M96.3712 104.718C95.9886 104.724 95.6239 104.88 95.3556 105.152C95.0873 105.424 94.937 105.789 94.937 106.17C94.937 106.551 95.0873 106.917 95.3556 107.189C95.6239 107.46 95.9886 107.616 96.3712 107.623H134.838C135.03 107.627 135.221 107.593 135.4 107.523C135.579 107.453 135.742 107.349 135.88 107.216C136.019 107.084 136.129 106.925 136.206 106.75C136.283 106.574 136.324 106.386 136.327 106.194C136.33 106.003 136.295 105.813 136.224 105.635C136.154 105.457 136.048 105.295 135.914 105.158C135.78 105.021 135.621 104.911 135.444 104.836C135.268 104.76 135.078 104.72 134.886 104.718C134.87 104.718 134.854 104.718 134.838 104.718H96.3712Z" fill="white"/>
<path d="M96.3708 118.343C95.9882 118.349 95.6235 118.505 95.3552 118.777C95.0869 119.049 94.9365 119.414 94.9365 119.795C94.9365 120.176 95.0869 120.542 95.3552 120.814C95.6235 121.085 95.9882 121.241 96.3708 121.248H172.525C172.911 121.253 173.283 121.105 173.56 120.837C173.837 120.569 173.996 120.203 174.002 119.819C174.009 119.435 173.862 119.064 173.594 118.787C173.326 118.51 172.959 118.351 172.573 118.343C172.557 118.343 172.541 118.343 172.525 118.343H96.3708Z" fill="white"/>
<path d="M96.3708 131.968C95.9882 131.974 95.6235 132.13 95.3552 132.402C95.0869 132.674 94.9365 133.039 94.9365 133.42C94.9365 133.801 95.0869 134.167 95.3552 134.439C95.6235 134.71 95.9882 134.866 96.3708 134.873H172.525C172.717 134.877 172.908 134.843 173.087 134.773C173.266 134.703 173.429 134.599 173.568 134.466C173.706 134.334 173.816 134.175 173.893 134C173.97 133.824 174.011 133.635 174.014 133.444C174.017 133.253 173.982 133.063 173.911 132.885C173.841 132.707 173.735 132.545 173.601 132.408C173.468 132.271 173.308 132.161 173.131 132.086C172.955 132.01 172.765 131.97 172.573 131.968C172.557 131.968 172.541 131.968 172.525 131.968H96.3708Z" fill="white"/>
<path d="M96.3712 145.593C95.9886 145.599 95.6239 145.755 95.3556 146.027C95.0873 146.299 94.937 146.664 94.937 147.045C94.937 147.426 95.0873 147.792 95.3556 148.064C95.6239 148.336 95.9886 148.491 96.3712 148.498H172.526C172.718 148.502 172.909 148.468 173.088 148.398C173.267 148.329 173.43 148.224 173.568 148.092C173.706 147.959 173.817 147.8 173.894 147.625C173.97 147.449 174.011 147.261 174.015 147.069C174.018 146.878 173.983 146.688 173.912 146.51C173.841 146.332 173.736 146.17 173.602 146.033C173.468 145.896 173.308 145.786 173.132 145.711C172.955 145.635 172.766 145.595 172.574 145.593C172.558 145.593 172.542 145.593 172.526 145.593H96.3712Z" fill="white"/>
<path d="M96.3712 159.218C95.9886 159.224 95.6239 159.38 95.3556 159.652C95.0873 159.923 94.937 160.289 94.937 160.67C94.937 161.051 95.0873 161.417 95.3556 161.689C95.6239 161.96 95.9886 162.116 96.3712 162.123H172.526C172.718 162.126 172.909 162.093 173.088 162.023C173.267 161.953 173.43 161.849 173.568 161.716C173.706 161.584 173.817 161.425 173.894 161.249C173.97 161.074 174.011 160.885 174.015 160.694C174.018 160.503 173.983 160.313 173.912 160.135C173.841 159.957 173.736 159.795 173.602 159.658C173.468 159.521 173.308 159.411 173.132 159.336C172.955 159.26 172.766 159.22 172.574 159.218C172.558 159.217 172.542 159.217 172.526 159.218H96.3712Z" fill="white"/>
<path d="M96.3712 172.843C95.9886 172.849 95.6239 173.005 95.3556 173.277C95.0873 173.548 94.937 173.914 94.937 174.295C94.937 174.676 95.0873 175.042 95.3556 175.314C95.6239 175.585 95.9886 175.741 96.3712 175.748H172.526C172.718 175.751 172.909 175.718 173.088 175.648C173.267 175.578 173.43 175.474 173.568 175.341C173.706 175.209 173.817 175.05 173.894 174.874C173.97 174.699 174.011 174.51 174.015 174.319C174.018 174.128 173.983 173.938 173.912 173.76C173.841 173.582 173.736 173.42 173.602 173.283C173.468 173.146 173.308 173.036 173.132 172.961C172.955 172.885 172.766 172.845 172.574 172.843C172.558 172.842 172.542 172.842 172.526 172.843H96.3712Z" fill="white"/>
<path d="M192.17 93.8094H177.406C176.994 93.8094 176.598 93.6464 176.307 93.3562C176.015 93.066 175.852 92.6724 175.852 92.262V79.1086L192.17 93.8094Z" fill="currentColor"/>
<path opacity="0.2" d="M192.17 93.8094H177.406C176.994 93.8094 176.598 93.6464 176.307 93.3562C176.015 93.066 175.852 92.6724 175.852 92.262V79.1086L192.17 93.8094Z" fill="#60888A"/>
</g>
<defs>
<clipPath id="clip0">
<rect width="392" height="235" fill="white" transform="translate(0 0.730347)"/>
</clipPath>
</defs>
</svg>
