<svg width="487" height="261" viewBox="0 0 487 261" fill="none" xmlns="http://www.w3.org/2000/svg">
<g clip-path="url(#clip0)">
<path d="M105.268 260.436H104.172C104.172 246.824 98.742 233.77 89.0768 224.145C79.4116 214.52 66.3028 209.113 52.6342 209.113C38.9655 209.113 25.8567 214.52 16.1916 224.145C6.52638 233.77 1.09655 246.824 1.09655 260.436H0C2.08012e-07 246.535 5.54536 233.203 15.4162 223.373C25.287 213.543 38.6747 208.021 52.6342 208.021C66.5936 208.021 79.9813 213.543 89.8522 223.373C99.723 233.203 105.268 246.535 105.268 260.436Z" fill="#3F3D56"/>
<path d="M486.866 260.436H485.769C485.769 246.824 480.34 233.77 470.674 224.145C461.009 214.52 447.9 209.113 434.232 209.113C420.563 209.113 407.454 214.52 397.789 224.145C388.124 233.77 382.694 246.824 382.694 260.436H381.598C381.598 246.535 387.143 233.203 397.014 223.373C406.885 213.543 420.272 208.021 434.232 208.021C448.191 208.021 461.579 213.543 471.45 223.373C481.321 233.203 486.866 246.535 486.866 260.436Z" fill="#3F3D56"/>
<path d="M358.022 135.405H356.925C356.925 83.6229 314.621 41.4952 262.623 41.4952C210.624 41.4952 168.32 83.6229 168.32 135.405H167.223C167.223 83.0209 210.019 40.4032 262.623 40.4032C315.226 40.4032 358.022 83.0209 358.022 135.405Z" fill="#3F3D56"/>
<path d="M79.7735 43.133C91.7342 43.133 101.43 33.4774 101.43 21.5665C101.43 9.65565 91.7342 0 79.7735 0C67.8128 0 58.1167 9.65565 58.1167 21.5665C58.1167 33.4774 67.8128 43.133 79.7735 43.133Z" fill="#FF6584"/>
<path d="M84.3745 170.012L121.581 125.886H194.731L239.434 169.247L238.531 169.825H238.853V260.014H84.4255V169.825L84.3745 170.012Z" fill="#3F3D56"/>
<path d="M106.759 150.828H115.193V121.755H106.759V150.828Z" fill="#3F3D56"/>
<path d="M121 125.309L166.864 178.855V260.014H84.4248V168.669L121 125.309Z" fill="currentColor"/>
<path d="M156.265 189.481H139.429V206.624H156.265V189.481Z" fill="#3F3D56"/>
<path d="M156.265 212.808H139.429V229.951H156.265V212.808Z" fill="#3F3D56"/>
<path d="M156.265 189.481H139.429V206.624H156.265V189.481Z" fill="white"/>
<path d="M156.265 212.808H139.429V229.951H156.265V212.808Z" fill="white"/>
<path d="M132.981 189.481H116.145V206.624H132.981V189.481Z" fill="#3F3D56"/>
<path d="M132.981 212.808H116.145V229.951H132.981V212.808Z" fill="#3F3D56"/>
<path d="M132.981 189.481H116.145V206.624H132.981V189.481Z" fill="white"/>
<path d="M132.981 212.808H116.145V229.951H132.981V212.808Z" fill="white"/>
<path d="M109.696 189.481H92.8604V206.624H109.696V189.481Z" fill="#3F3D56"/>
<path d="M109.696 212.808H92.8604V229.951H109.696V212.808Z" fill="#3F3D56"/>
<path d="M109.696 189.481H92.8604V206.624H109.696V189.481Z" fill="white"/>
<path d="M109.696 212.808H92.8604V229.951H109.696V212.808Z" fill="white"/>
<path d="M273.588 21.8396H265.912V40.9491H273.588V21.8396Z" fill="currentColor"/>
<path d="M273.04 39.3112H207.795V260.436H273.04V39.3112Z" fill="currentColor"/>
<path d="M299.357 39.3112H273.04V260.436H299.357V39.3112Z" fill="#3F3D56"/>
<path d="M229.452 58.4206H219.583V68.2483H229.452V58.4206Z" fill="white"/>
<path d="M245.352 58.4206H235.483V68.2483H245.352V58.4206Z" fill="white"/>
<path d="M261.252 58.4206H251.383V68.2483H261.252V58.4206Z" fill="white"/>
<path d="M229.726 80.8062H219.857V90.634H229.726V80.8062Z" fill="white"/>
<path d="M245.626 80.8062H235.757V90.634H245.626V80.8062Z" fill="white"/>
<path d="M261.526 80.8062H251.657V90.634H261.526V80.8062Z" fill="white"/>
<path d="M230 103.192H220.131V113.02H230V103.192Z" fill="white"/>
<path d="M245.9 103.192H236.031V113.02H245.9V103.192Z" fill="white"/>
<path d="M261.801 103.192H251.932V113.02H261.801V103.192Z" fill="white"/>
<path d="M230.274 125.577H220.405V135.405H230.274V125.577Z" fill="white"/>
<path d="M246.175 125.577H236.306V135.405H246.175V125.577Z" fill="white"/>
<path d="M262.074 125.577H252.206V135.405H262.074V125.577Z" fill="white"/>
<path d="M230.549 147.963H220.68V157.791H230.549V147.963Z" fill="white"/>
<path d="M246.448 147.963H236.58V157.791H246.448V147.963Z" fill="white"/>
<path d="M262.348 147.963H252.479V157.791H262.348V147.963Z" fill="white"/>
<path d="M230.823 170.348H220.954V180.176H230.823V170.348Z" fill="white"/>
<path d="M246.723 170.348H236.854V180.176H246.723V170.348Z" fill="white"/>
<path d="M262.623 170.348H252.754V180.176H262.623V170.348Z" fill="white"/>
<path d="M231.097 192.734H221.229V202.561H231.097V192.734Z" fill="white"/>
<path d="M246.997 192.734H237.128V202.561H246.997V192.734Z" fill="white"/>
<path d="M262.897 192.734H253.028V202.561H262.897V192.734Z" fill="white"/>
<path d="M231.371 215.119H221.502V224.947H231.371V215.119Z" fill="white"/>
<path d="M247.271 215.119H237.402V224.947H247.271V215.119Z" fill="white"/>
<path d="M247.271 241.327H237.402V259.89H247.271V241.327Z" fill="white"/>
<path d="M263.171 215.119H253.302V224.947H263.171V215.119Z" fill="white"/>
<path d="M277.426 21.8396H273.04V40.4031H277.426V21.8396Z" fill="#3F3D56"/>
<path d="M355.829 119.025H348.153V130.351H355.829V119.025Z" fill="currentColor"/>
<path d="M355.281 129.38H290.036V260.436H355.281V129.38Z" fill="currentColor"/>
<path d="M381.598 129.38H355.281V260.436H381.598V129.38Z" fill="#3F3D56"/>
<path d="M312.789 147.963H302.92V157.791H312.789V147.963Z" fill="white"/>
<path d="M328.689 147.963H318.82V157.791H328.689V147.963Z" fill="white"/>
<path d="M344.589 147.963H334.72V157.791H344.589V147.963Z" fill="white"/>
<path d="M313.064 170.348H303.195V180.176H313.064V170.348Z" fill="white"/>
<path d="M328.964 170.348H319.095V180.176H328.964V170.348Z" fill="white"/>
<path d="M344.864 170.348H334.995V180.176H344.864V170.348Z" fill="white"/>
<path d="M313.338 192.734H303.469V202.561H313.338V192.734Z" fill="white"/>
<path d="M329.238 192.734H319.369V202.561H329.238V192.734Z" fill="white"/>
<path d="M345.137 192.734H335.269V202.561H345.137V192.734Z" fill="white"/>
<path d="M313.612 215.119H303.743V224.947H313.612V215.119Z" fill="white"/>
<path d="M329.512 215.119H319.643V224.947H329.512V215.119Z" fill="white"/>
<path d="M329.512 241.327H319.643V259.89H329.512V241.327Z" fill="white"/>
<path d="M345.412 215.119H335.543V224.947H345.412V215.119Z" fill="white"/>
<path d="M359.667 119.025H355.281V130.028H359.667V119.025Z" fill="#3F3D56"/>
<path d="M487 259.777H0.133789V261H487V259.777Z" fill="#3F3D56"/>
<path d="M401.698 234.819C409.583 234.819 415.975 228.453 415.975 220.601C415.975 212.749 409.583 206.383 401.698 206.383C393.813 206.383 387.42 212.749 387.42 220.601C387.42 228.453 393.813 234.819 401.698 234.819Z" fill="currentColor"/>
<path opacity="0.2" d="M412.318 211.105C413.65 214.207 413.83 217.68 412.828 220.902C411.825 224.125 409.704 226.888 406.844 228.696C403.985 230.505 400.572 231.243 397.217 230.777C393.861 230.311 390.781 228.672 388.528 226.152C389.341 228.048 390.559 229.744 392.096 231.125C393.634 232.505 395.454 233.536 397.431 234.146C399.408 234.756 401.495 234.931 403.546 234.658C405.598 234.385 407.566 233.672 409.313 232.566C411.06 231.461 412.545 229.991 413.665 228.258C414.785 226.524 415.513 224.569 415.799 222.528C416.085 220.486 415.922 218.407 415.32 216.435C414.719 214.462 413.695 212.644 412.318 211.105Z" fill="black"/>
<path d="M401.737 220.601H401.776L402.482 260.911H400.992L401.737 220.601Z" fill="#3F3D56"/>
<path d="M404.336 242.558L404.007 241.936L401.647 243.173L401.976 243.795L404.336 242.558Z" fill="#3F3D56"/>
<path d="M443.672 221.233C455.663 221.233 465.383 211.554 465.383 199.613C465.383 187.672 455.663 177.992 443.672 177.992C431.681 177.992 421.961 187.672 421.961 199.613C421.961 211.554 431.681 221.233 443.672 221.233Z" fill="currentColor"/>
<path opacity="0.2" d="M459.822 185.171C461.847 189.889 462.122 195.17 460.597 200.07C459.072 204.971 455.847 209.172 451.498 211.923C447.149 214.674 441.96 215.795 436.857 215.086C431.755 214.377 427.072 211.885 423.645 208.054C424.882 210.936 426.733 213.516 429.071 215.615C431.409 217.714 434.177 219.282 437.183 220.209C440.19 221.137 443.363 221.403 446.483 220.988C449.603 220.573 452.595 219.488 455.252 217.808C457.909 216.127 460.167 213.891 461.87 211.256C463.573 208.62 464.681 205.646 465.115 202.542C465.55 199.438 465.302 196.276 464.388 193.277C463.474 190.277 461.916 187.512 459.822 185.171Z" fill="black"/>
<path d="M443.732 199.613H443.792L444.865 260.911H442.599L443.732 199.613Z" fill="#3F3D56"/>
<path d="M447.686 233.002L447.186 232.055L443.597 233.937L444.097 234.883L447.686 233.002Z" fill="#3F3D56"/>
<path d="M14.6172 234.273C22.5023 234.273 28.8945 227.907 28.8945 220.055C28.8945 212.203 22.5023 205.837 14.6172 205.837C6.73202 205.837 0.339844 212.203 0.339844 220.055C0.339844 227.907 6.73202 234.273 14.6172 234.273Z" fill="currentColor"/>
<path opacity="0.2" d="M25.2375 210.559C26.5692 213.661 26.7499 217.134 25.7472 220.356C24.7445 223.579 22.6237 226.342 19.7639 228.151C16.9041 229.959 13.4915 230.697 10.1361 230.231C6.78065 229.765 3.70093 228.126 1.44727 225.607C2.2608 227.502 3.4784 229.198 5.01572 230.579C6.55303 231.959 8.37328 232.99 10.3504 233.6C12.3275 234.21 14.4141 234.385 16.4658 234.112C18.5174 233.839 20.485 233.126 22.2322 232.02C23.9794 230.915 25.4645 229.445 26.5844 227.712C27.7044 225.978 28.4326 224.023 28.7184 221.982C29.0043 219.94 28.8411 217.861 28.24 215.889C27.639 213.916 26.6145 212.098 25.2375 210.559H25.2375Z" fill="black"/>
<path d="M14.6567 220.055H14.6962L15.4018 260.365H13.9116L14.6567 220.055Z" fill="#3F3D56"/>
<path d="M17.2557 242.012L16.9268 241.39L14.5667 242.627L14.8956 243.249L17.2557 242.012Z" fill="#3F3D56"/>
<path d="M332.48 20.3847L337.527 16.3647C333.606 15.9339 331.995 18.0634 331.335 19.7489C328.272 18.4822 324.938 20.1423 324.938 20.1423L335.036 23.7931C334.527 22.4381 333.64 21.2557 332.48 20.3847Z" fill="#3F3D56"/>
<path d="M79.1773 40.5863L84.2245 36.5663C80.3035 36.1355 78.6925 38.265 78.0332 39.9505C74.97 38.6838 71.6353 40.3439 71.6353 40.3439L81.7338 43.9947C81.2244 42.6397 80.3375 41.4573 79.1773 40.5863Z" fill="#3F3D56"/>
<path d="M409.238 61.3337L414.285 57.3137C410.364 56.8829 408.753 59.0124 408.094 60.6979C405.03 59.4312 401.696 61.0913 401.696 61.0913L411.794 64.7421C411.285 63.3871 410.398 62.2047 409.238 61.3337Z" fill="#3F3D56"/>
<path d="M120.846 29.6665L125.893 25.6465C121.972 25.2157 120.361 27.3452 119.702 29.0307C116.639 27.764 113.304 29.4241 113.304 29.4241L123.403 33.075C122.893 31.7199 122.006 30.5375 120.846 29.6665Z" fill="#3F3D56"/>
<path d="M130.167 73.3454L135.214 69.3254C131.293 68.8946 129.682 71.0241 129.023 72.7096C125.96 71.4429 122.625 73.103 122.625 73.103L132.724 76.7538C132.214 75.3988 131.327 74.2164 130.167 73.3454Z" fill="#3F3D56"/>
<path d="M326.449 96.2769L331.496 92.2569C327.575 91.8261 325.964 93.9556 325.305 95.6411C322.241 94.3744 318.907 96.0345 318.907 96.0345L329.005 99.6854C328.496 98.3303 327.609 97.1479 326.449 96.2769Z" fill="#3F3D56"/>
<path d="M58.1174 248.97H24.1245V250.062H29.4258V260.436H30.5223V250.062H51.1714V260.436H52.2679V250.062H58.1174V248.97Z" fill="#3F3D56"/>
<path d="M92.658 253.338C91.3163 253.338 89.9983 253.69 88.8368 254.359C87.6573 253.297 86.1934 252.599 84.623 252.349C83.0525 252.099 81.4431 252.308 79.9899 252.952C78.5368 253.595 77.3024 254.645 76.4368 255.974C75.5711 257.302 75.1114 258.852 75.1133 260.436H100.306C100.169 258.509 99.3035 256.706 97.8844 255.389C96.4653 254.072 94.5978 253.339 92.658 253.338Z" fill="#3F3D56"/>
<path d="M222.599 253.338C221.257 253.338 219.939 253.69 218.778 254.359C217.598 253.297 216.134 252.599 214.564 252.349C212.993 252.099 211.384 252.308 209.931 252.952C208.478 253.595 207.243 254.645 206.378 255.974C205.512 257.302 205.052 258.852 205.054 260.436H230.247C230.11 258.509 229.244 256.706 227.825 255.389C226.406 254.072 224.539 253.339 222.599 253.338Z" fill="#3F3D56"/>
<path d="M307.581 253.338C306.239 253.338 304.921 253.69 303.76 254.359C302.58 253.297 301.116 252.599 299.546 252.349C297.975 252.099 296.366 252.308 294.913 252.952C293.46 253.595 292.225 254.645 291.36 255.974C290.494 257.302 290.034 258.852 290.036 260.436H315.229C315.092 258.509 314.226 256.706 312.807 255.389C311.388 254.072 309.521 253.339 307.581 253.338Z" fill="#3F3D56"/>
<path d="M419.428 253.338C418.087 253.338 416.769 253.69 415.607 254.359C414.428 253.297 412.964 252.599 411.393 252.349C409.823 252.099 408.214 252.308 406.76 252.952C405.307 253.595 404.073 254.645 403.207 255.974C402.342 257.302 401.882 258.852 401.884 260.436H427.077C426.939 258.509 426.074 256.706 424.655 255.389C423.236 254.072 421.368 253.339 419.428 253.338Z" fill="#3F3D56"/>
<path d="M473.159 253.338C471.818 253.338 470.5 253.69 469.338 254.359C468.159 253.297 466.695 252.599 465.124 252.349C463.554 252.099 461.945 252.308 460.491 252.952C459.038 253.595 457.804 254.645 456.938 255.974C456.073 257.302 455.613 258.852 455.615 260.436H480.808C480.67 258.509 479.805 256.706 478.386 255.389C476.967 254.072 475.099 253.339 473.159 253.338Z" fill="#3F3D56"/>
<path d="M70.7274 222.217H61.9551V230.953H66.0216V260.388H67.1182V230.953H70.7274V222.217Z" fill="#3F3D56"/>
<path d="M58.1848 245.703H24.1919V246.795H58.1848V245.703Z" fill="#3F3D56"/>
<path d="M58.1848 242.974H24.1919V244.066H58.1848V242.974Z" fill="#3F3D56"/>
<path d="M58.1848 240.243H24.1919V241.335H58.1848V240.243Z" fill="#3F3D56"/>
</g>
<defs>
<clipPath id="clip0">
<rect width="487" height="261" fill="white"/>
</clipPath>
</defs>
</svg>
