<svg width="396" height="243" viewBox="0 0 396 243" fill="none" xmlns="http://www.w3.org/2000/svg">
<g clip-path="url(#clip0)">
<path d="M19.8489 224.022C20.0142 230.188 21.0478 236.3 22.9192 242.178C22.9607 242.315 23.0068 242.449 23.0516 242.585H34.5087C34.4966 242.463 34.4842 242.327 34.4722 242.178C33.7083 233.401 38.0724 180.618 43.3385 171.483C42.8771 172.224 18.9605 196.133 19.8489 224.022Z" fill="#F1F1F1"/>
<path d="M20.7088 242.178C20.8046 242.315 20.9042 242.451 21.0063 242.585H29.6017C29.5365 242.469 29.461 242.333 29.3735 242.178C27.9536 239.617 23.751 231.96 19.8499 224.021C15.6593 215.491 11.8113 206.637 12.1354 203.432C12.035 204.154 9.13389 226.188 20.7088 242.178Z" fill="#F1F1F1"/>
<path d="M270.731 50.0004C271.059 50.811 271.561 51.5398 272.201 52.1357C272.841 52.7315 273.605 53.1797 274.437 53.4489C275.269 53.718 276.151 53.8015 277.019 53.6934C277.887 53.5854 278.721 53.2884 279.462 52.8234L296.05 66.1219L297.077 55.1253L281.167 44.1828C280.303 42.9907 279.031 42.1568 277.593 41.8391C276.155 41.5214 274.65 41.7421 273.363 42.4591C272.077 43.1762 271.099 44.34 270.614 45.7299C270.128 47.1198 270.17 48.6392 270.731 50.0004Z" fill="#9F616A"/>
<path d="M296.42 54.0928L290.229 49.7209L283.207 57.8299L291.375 62.6683L296.42 54.0928Z" fill="currentColor"/>
<path d="M295.064 51.1278L315.929 59.1513L336.015 46.007C338.09 44.6485 340.59 44.0915 343.046 44.4399C345.503 44.7883 347.749 46.0183 349.364 47.9003C350.98 49.7823 351.855 52.1877 351.826 54.6673C351.797 57.1468 350.866 59.5311 349.207 61.375L349.027 61.5744L318.135 78.1275L284.392 62.7211L295.064 51.1278Z" fill="#3F3D56"/>
<path d="M289.182 241.756H71.7661L79.6495 87.9113H113.673L145.046 109.889H297.066L289.182 241.756Z" fill="#E5E5E5"/>
<path d="M235.96 194.841L110.297 143.119C109.857 142.938 109.508 142.589 109.325 142.151C109.142 141.712 109.141 141.219 109.321 140.78L166.262 2.59681C166.444 2.15775 166.792 1.80857 167.231 1.62587C167.669 1.44318 168.163 1.44189 168.603 1.62229L294.266 53.344C294.705 53.5255 295.055 53.8736 295.238 54.3121C295.42 54.7507 295.422 55.2438 295.241 55.6833L238.301 193.866C238.119 194.305 237.771 194.654 237.332 194.837C236.893 195.02 236.4 195.021 235.96 194.841Z" fill="white"/>
<path d="M235.96 194.841L110.297 143.119C109.857 142.938 109.508 142.589 109.325 142.151C109.142 141.712 109.141 141.219 109.321 140.78L166.262 2.59681C166.444 2.15775 166.792 1.80857 167.231 1.62587C167.669 1.44318 168.163 1.44189 168.603 1.62229L294.266 53.344C294.705 53.5255 295.055 53.8736 295.238 54.3121C295.42 54.7507 295.422 55.2438 295.241 55.6833L238.301 193.866C238.119 194.305 237.771 194.654 237.332 194.837C236.893 195.02 236.4 195.021 235.96 194.841ZM168.329 2.28504C168.066 2.17678 167.77 2.17755 167.506 2.28717C167.243 2.39679 167.034 2.6063 166.925 2.86976L109.985 141.053C109.876 141.316 109.877 141.612 109.987 141.875C110.096 142.139 110.306 142.347 110.57 142.456L236.233 194.178C236.497 194.286 236.793 194.285 237.056 194.176C237.32 194.066 237.529 193.857 237.637 193.593L294.578 55.4103C294.686 55.1466 294.686 54.8508 294.576 54.5876C294.466 54.3245 294.257 54.1156 293.993 54.0068L168.329 2.28504Z" fill="#3F3D56"/>
<path d="M203.822 70.0249L172.654 57.1968C172.215 57.0154 171.866 56.6672 171.683 56.2287C171.5 55.7901 171.499 55.2971 171.679 54.8576L184.515 23.7084C184.696 23.2693 185.045 22.9202 185.484 22.7375C185.922 22.5548 186.416 22.5535 186.855 22.7339L218.023 35.562C218.462 35.7434 218.811 36.0915 218.994 36.5301C219.177 36.9686 219.178 37.4617 218.998 37.9012L206.162 69.0503C205.981 69.4894 205.632 69.8386 205.194 70.0213C204.755 70.204 204.261 70.2053 203.822 70.0249ZM186.582 23.3966C186.319 23.2884 186.023 23.2892 185.759 23.3988C185.496 23.5084 185.287 23.7179 185.178 23.9814L172.343 55.1305C172.234 55.3942 172.235 55.6901 172.345 55.9532C172.454 56.2163 172.664 56.4252 172.928 56.534L204.095 69.3621C204.359 69.4704 204.655 69.4696 204.918 69.36C205.181 69.2504 205.39 69.0409 205.499 68.7774L218.335 37.6283C218.443 37.3646 218.442 37.0687 218.333 36.8056C218.223 36.5425 218.013 36.3336 217.75 36.2247L186.582 23.3966Z" fill="#F2F2F2"/>
<path d="M193.299 70.151L162.132 57.3229C161.737 57.1596 161.422 56.8463 161.258 56.4516C161.093 56.0569 161.092 55.6131 161.254 55.2176L174.09 24.0684C174.253 23.6733 174.567 23.359 174.962 23.1946C175.357 23.0301 175.801 23.029 176.196 23.1914L207.364 36.0194C207.759 36.1827 208.073 36.496 208.238 36.8907C208.402 37.2854 208.404 37.7292 208.241 38.1248L195.406 69.2739C195.242 69.6691 194.929 69.9834 194.534 70.1478C194.139 70.3122 193.695 70.3134 193.299 70.151Z" fill="currentColor"/>
<path d="M253.331 112.688L155.851 72.5661C155.655 72.4855 155.477 72.3671 155.327 72.2176C155.176 72.0682 155.057 71.8906 154.976 71.6951C154.894 71.4996 154.852 71.29 154.852 71.0782C154.851 70.8665 154.892 70.6567 154.973 70.4608C155.054 70.265 155.172 70.087 155.322 69.9369C155.471 69.7869 155.649 69.6677 155.845 69.5863C156.04 69.5049 156.25 69.4627 156.462 69.4623C156.674 69.4619 156.884 69.5031 157.08 69.5838L254.56 109.706C254.956 109.869 255.271 110.182 255.435 110.577C255.6 110.971 255.601 111.415 255.438 111.811C255.275 112.206 254.961 112.521 254.566 112.685C254.171 112.85 253.727 112.851 253.331 112.688V112.688Z" fill="#CCCCCC"/>
<path d="M225.557 113.271L151.618 82.8387C151.422 82.7581 151.244 82.6397 151.094 82.4902C150.943 82.3408 150.824 82.1632 150.743 81.9677C150.661 81.7722 150.619 81.5626 150.619 81.3508C150.618 81.1391 150.66 80.9293 150.74 80.7334C150.821 80.5376 150.939 80.3596 151.089 80.2095C151.238 80.0595 151.416 79.9403 151.612 79.8589C151.807 79.7774 152.017 79.7353 152.229 79.7349C152.441 79.7344 152.651 79.7757 152.847 79.8564L226.786 110.289C227.182 110.452 227.496 110.765 227.661 111.16C227.826 111.555 227.827 111.999 227.664 112.394C227.501 112.79 227.187 113.104 226.792 113.269C226.397 113.433 225.953 113.434 225.557 113.271Z" fill="#CCCCCC"/>
<path d="M268.566 74.7749L225.463 57.034C225.267 56.9533 225.088 56.8349 224.938 56.6854C224.788 56.536 224.669 56.3585 224.587 56.163C224.506 55.9675 224.464 55.7579 224.463 55.5461C224.463 55.3343 224.504 55.1245 224.585 54.9287C224.666 54.7329 224.784 54.5548 224.934 54.4048C225.083 54.2547 225.261 54.1356 225.456 54.0541C225.652 53.9727 225.862 53.9305 226.074 53.9301C226.286 53.9297 226.496 53.971 226.691 54.0516L269.795 71.7926C270.191 71.9555 270.506 72.2688 270.67 72.6636C270.835 73.0584 270.836 73.5024 270.673 73.8979C270.51 74.2934 270.196 74.6079 269.801 74.7724C269.406 74.9369 268.962 74.9378 268.566 74.7749Z" fill="#CCCCCC"/>
<path d="M253.576 80.6199L221.23 67.3065C220.834 67.1436 220.519 66.8303 220.355 66.4355C220.19 66.0407 220.189 65.5967 220.352 65.2012C220.515 64.8057 220.829 64.4911 221.224 64.3267C221.619 64.1622 222.063 64.1613 222.459 64.3241L254.805 77.6376C255.201 77.8004 255.515 78.1137 255.68 78.5086C255.845 78.9034 255.845 79.3474 255.683 79.7428C255.52 80.1383 255.206 80.4529 254.811 80.6174C254.416 80.7819 253.972 80.7828 253.576 80.6199V80.6199Z" fill="#CCCCCC"/>
<path d="M244.865 133.233L147.385 93.1113C147.189 93.0307 147.011 92.9122 146.861 92.7628C146.711 92.6133 146.591 92.4358 146.51 92.2403C146.428 92.0448 146.386 91.8352 146.386 91.6234C146.385 91.4116 146.427 91.2018 146.507 91.006C146.588 90.8102 146.707 90.6322 146.856 90.4821C147.006 90.3321 147.183 90.2129 147.379 90.1315C147.574 90.05 147.784 90.0079 147.996 90.0074C148.208 90.007 148.418 90.0483 148.614 90.1289L246.094 130.251C246.49 130.414 246.805 130.727 246.969 131.122C247.134 131.517 247.135 131.961 246.972 132.356C246.809 132.752 246.495 133.066 246.1 133.231C245.705 133.395 245.261 133.396 244.865 133.233V133.233Z" fill="#CCCCCC"/>
<path d="M217.091 133.816L143.152 103.384C142.956 103.303 142.778 103.185 142.628 103.035C142.478 102.886 142.358 102.708 142.277 102.513C142.195 102.317 142.153 102.108 142.153 101.896C142.152 101.684 142.194 101.474 142.274 101.279C142.355 101.083 142.474 100.905 142.623 100.755C142.773 100.605 142.95 100.485 143.146 100.404C143.342 100.323 143.551 100.28 143.763 100.28C143.975 100.28 144.185 100.321 144.381 100.402L218.32 130.834C218.516 130.915 218.694 131.033 218.844 131.183C218.994 131.332 219.114 131.51 219.195 131.705C219.277 131.901 219.319 132.11 219.319 132.322C219.32 132.534 219.278 132.744 219.198 132.939C219.117 133.135 218.999 133.313 218.849 133.463C218.699 133.613 218.522 133.733 218.326 133.814C218.131 133.895 217.921 133.938 217.709 133.938C217.497 133.938 217.287 133.897 217.091 133.816Z" fill="#CCCCCC"/>
<path d="M236.399 153.778L138.919 113.656C138.523 113.494 138.209 113.18 138.044 112.785C137.879 112.391 137.879 111.947 138.042 111.551C138.204 111.156 138.518 110.841 138.913 110.677C139.308 110.512 139.752 110.511 140.148 110.674L237.628 150.796C238.024 150.959 238.339 151.272 238.503 151.667C238.668 152.062 238.669 152.506 238.506 152.901C238.343 153.297 238.029 153.611 237.634 153.776C237.239 153.94 236.795 153.941 236.399 153.778Z" fill="#CCCCCC"/>
<path d="M232.166 164.051L134.686 123.929C134.29 123.766 133.975 123.453 133.811 123.058C133.646 122.663 133.645 122.219 133.808 121.824C133.971 121.428 134.285 121.114 134.68 120.949C135.075 120.785 135.519 120.784 135.915 120.947L233.395 161.069C233.591 161.149 233.769 161.268 233.919 161.417C234.069 161.567 234.189 161.744 234.27 161.94C234.352 162.135 234.394 162.345 234.394 162.556C234.395 162.768 234.353 162.978 234.273 163.174C234.192 163.37 234.073 163.548 233.924 163.698C233.774 163.848 233.597 163.967 233.401 164.048C233.205 164.13 232.996 164.172 232.784 164.172C232.572 164.173 232.362 164.132 232.166 164.051Z" fill="#CCCCCC"/>
<path d="M184.611 163.288C186.562 163.391 188.518 163.331 190.459 163.11C192.207 162.905 194.027 162.624 195.559 161.706C196.222 161.328 196.786 160.799 197.206 160.163C197.626 159.526 197.889 158.8 197.975 158.042C198.042 157.321 197.879 156.598 197.508 155.976C197.137 155.355 196.577 154.868 195.911 154.585C195.234 154.3 194.493 154.204 193.766 154.306C193.039 154.407 192.354 154.704 191.782 155.163C191.17 155.694 190.687 156.355 190.367 157.098C190.048 157.842 189.9 158.647 189.935 159.456C190.016 162.775 192.644 166.053 195.561 167.434C198.848 168.989 203.336 167.667 204.178 163.838C204.353 163.041 203.267 162.764 202.813 163.276C202.194 163.959 201.858 164.852 201.876 165.774C201.893 166.695 202.262 167.575 202.906 168.234C203.551 168.893 204.423 169.281 205.344 169.319C206.266 169.357 207.167 169.042 207.864 168.438L206.642 167.935C206.997 169.422 207.738 170.789 208.789 171.899C209.841 173.009 211.166 173.823 212.632 174.259C213.356 174.475 214.106 174.589 214.861 174.598C215.779 174.601 216.722 175.061 217.6 175.347L223.925 177.406C224.855 177.709 225.445 176.298 224.507 175.992L218.779 174.127C217.824 173.816 216.872 173.497 215.915 173.194C215.23 172.978 214.481 173.095 213.767 172.968C212.431 172.715 211.194 172.088 210.201 171.16C209.208 170.231 208.499 169.04 208.158 167.724C208.137 167.594 208.083 167.47 208.001 167.366C207.918 167.262 207.811 167.181 207.688 167.131C207.565 167.08 207.432 167.062 207.3 167.078C207.169 167.094 207.043 167.143 206.936 167.222C206.536 167.602 206.002 167.81 205.449 167.798C204.897 167.787 204.371 167.558 203.987 167.161C203.603 166.764 203.391 166.232 203.398 165.68C203.404 165.128 203.629 164.601 204.023 164.214L202.658 163.652C202.115 166.122 199.1 167.05 196.927 166.335C194.497 165.536 192.408 163.212 191.683 160.777C191.489 160.191 191.418 159.573 191.474 158.959C191.53 158.345 191.712 157.75 192.009 157.209C192.274 156.717 192.686 156.319 193.189 156.073C193.691 155.827 194.258 155.745 194.81 155.838C195.303 155.908 195.749 156.166 196.055 156.558C196.361 156.951 196.502 157.446 196.449 157.941C196.368 158.497 196.151 159.025 195.818 159.478C195.485 159.931 195.046 160.295 194.539 160.538C193.171 161.272 191.533 161.455 190.014 161.621C188.281 161.81 186.537 161.859 184.797 161.77C183.82 161.72 183.624 163.238 184.611 163.288L184.611 163.288Z" fill="currentColor"/>
<path d="M289.182 120.256V241.756H71.7661V98.2781H105.789L137.161 120.256H289.182Z" fill="white"/>
<path d="M173.835 218.949H85.0435V225.998H173.835V218.949Z" fill="currentColor"/>
<path d="M129.439 205.265H85.0435V212.314H129.439V205.265Z" fill="currentColor"/>
<path d="M289.597 242.171H71.3511V97.8635H105.92L137.294 119.841H289.597V242.171ZM72.1809 241.341H288.767V120.671H137.032L105.658 98.6928H72.1809V241.341Z" fill="#3F3D56"/>
<path d="M377.718 227.506L370.362 230.134L356.72 203.024L367.578 199.146L377.718 227.506Z" fill="#9F616A"/>
<path d="M358.423 242.435L358.315 242.135C357.443 239.688 357.578 236.995 358.691 234.647C359.803 232.298 361.802 230.487 364.249 229.61L378.737 224.435L382.144 233.963L358.423 242.435Z" fill="#2F2E41"/>
<path d="M329.88 234.778H322.068L318.352 204.662L329.882 204.662L329.88 234.778Z" fill="#9F616A"/>
<path d="M331.873 242.347L306.682 242.346V242.027C306.682 240.74 306.936 239.466 307.429 238.277C307.921 237.088 308.644 236.008 309.554 235.098C310.464 234.188 311.545 233.466 312.735 232.974C313.925 232.482 315.2 232.228 316.487 232.228H316.488L331.873 232.229L331.873 242.347Z" fill="#2F2E41"/>
<path d="M347.685 42.3743L344.287 35.6646C344.287 35.6646 331.63 38.8339 330.479 46.1654L347.685 42.3743Z" fill="currentColor"/>
<path d="M361.704 119.094L352.464 170.625L376.998 213.988L362.341 219.719L337.489 177.686L334.303 166.222L332.391 226.088L319.173 225.687L313.112 169.787L322.833 117.821L361.704 119.094Z" fill="#2F2E41"/>
<path d="M359.792 95.8129L359.472 65.5949C359.472 52.7881 351.039 43.3488 349.87 42.4756C349.32 40.7211 348.333 39.5083 346.937 38.8737C344.126 37.6003 340.688 39.1283 340.542 39.1971L330.228 43.0617L330.179 43.2032C330.07 43.5266 319.662 77.6579 317.049 86.224C316.677 87.4529 316.463 88.1563 316.463 88.1563C316.463 88.1563 316.503 90.1372 316.576 93.2176C316.807 103.809 317.353 127.401 317.571 128.392C317.571 128.392 336.623 131.278 344.166 131.278C357.737 131.278 366.357 128.683 366.551 128.638L366.862 128.574L359.792 95.8129Z" fill="#3F3D56"/>
<path d="M340.423 31.8441C347.181 28.1522 349.664 19.6844 345.97 12.9307C342.276 6.17702 333.803 3.69492 327.046 7.3868C320.288 11.0787 317.805 19.5465 321.499 26.3002C325.193 33.0539 333.665 35.536 340.423 31.8441Z" fill="#9F616A"/>
<path opacity="0.2" d="M335.28 89.4176L316.576 93.2176C316.503 90.1372 316.463 88.1564 316.463 88.1564C316.463 88.1564 316.677 87.453 317.049 86.224L335.28 89.4176Z" fill="black"/>
<path d="M279.892 85.4344C280.556 86.0035 281.337 86.4202 282.179 86.655C283.022 86.8899 283.906 86.9372 284.769 86.7937C285.632 86.6502 286.453 86.3193 287.174 85.8244C287.895 85.3295 288.499 84.6825 288.943 83.9291L309.792 88.1149L305.645 77.878L286.482 75.4725C285.166 74.8111 283.653 74.6549 282.23 75.0338C280.807 75.4126 279.572 76.3001 278.76 77.528C277.947 78.7559 277.614 80.239 277.822 81.6962C278.031 83.1534 278.767 84.4835 279.892 85.4344Z" fill="#9F616A"/>
<path d="M304.587 77.2628L297.077 76.2257L294.572 86.654L304.052 87.1964L304.587 77.2628Z" fill="currentColor"/>
<path d="M302.018 75.253L324.238 72.7893L336.027 51.8864C337.245 49.7261 339.208 48.0828 341.55 47.2632C343.892 46.4437 346.452 46.5039 348.752 47.4327C351.053 48.3614 352.937 50.0953 354.052 52.3104C355.167 54.5256 355.437 57.0707 354.812 59.4705L354.745 59.7301L334.928 88.6263L297.875 90.4526L302.018 75.253Z" fill="#3F3D56"/>
<path d="M345.612 31.7155L334.038 32.1307C333.332 32.156 331.417 24.5466 331.167 22.968C330.969 21.9403 330.403 21.0198 329.576 20.3784C328.748 19.737 327.715 19.4186 326.67 19.4827C325.804 19.5645 323.619 17.9468 321.364 16.0313C317.084 12.3946 317.307 5.56443 322.009 2.49144C322.137 2.40746 322.263 2.33077 322.387 2.26138C325.353 0.602211 328.823 0.0450422 332.222 0.00255451C335.303 -0.0359606 338.471 0.351613 341.185 1.8091C346.052 4.42206 348.642 10.1321 348.869 15.6484C349.097 21.1647 347.327 26.5586 345.319 31.7019" fill="#2F2E41"/>
<path d="M395.085 243H0.914916C0.804873 243 0.699338 242.956 0.621526 242.879C0.543714 242.801 0.5 242.695 0.5 242.585C0.5 242.475 0.543714 242.37 0.621526 242.292C0.699338 242.214 0.804873 242.171 0.914916 242.171H395.085C395.195 242.171 395.301 242.214 395.379 242.292C395.456 242.37 395.5 242.475 395.5 242.585C395.5 242.695 395.456 242.801 395.379 242.879C395.301 242.956 395.195 243 395.085 243Z" fill="#CBCBCB"/>
</g>
<defs>
<clipPath id="clip0">
<rect width="395" height="243" fill="white" transform="translate(0.5)"/>
</clipPath>
</defs>
</svg>
